<svg width="120" height="100" viewBox="0 0 120 100" fill="none" xmlns="http://www.w3.org/2000/svg">
  <rect x="25" y="10" width="18" height="14" rx="3" fill="#0f172a" stroke="#1e293b" stroke-width="2"/>
  <rect x="50" y="10" width="18" height="14" rx="3" fill="#0f172a" stroke="#1e293b" stroke-width="2"/>
  <rect x="75" y="10" width="18" height="14" rx="3" fill="#0f172a" stroke="#1e293b" stroke-width="2"/>
  <rect x="25" y="76" width="18" height="14" rx="3" fill="#0f172a" stroke="#1e293b" stroke-width="2"/>
  <rect x="50" y="76" width="18" height="14" rx="3" fill="#0f172a" stroke="#1e293b" stroke-width="2"/>
  <rect x="75" y="76" width="18" height="14" rx="3" fill="#0f172a" stroke="#1e293b" stroke-width="2"/>
  <path d="M34 24V35M59 24V35M84 24V35M34 76V65M59 76V65M84 76V65" stroke="#334155" stroke-width="4"/>
  <rect x="20" y="28" width="80" height="44" rx="6" fill="#475569" stroke="#1e293b" stroke-width="2"/>
  <rect x="24" y="32" width="30" height="36" rx="2" fill="#1e293b" stroke="#38bdf8" stroke-width="1"/>
  <path d="M24 41H54M24 50H54M24 59H54M34 32V68M44 32V68" stroke="#38bdf8" stroke-opacity="0.3" stroke-width="1"/>
  <path d="M75 32H95C98.3137 32 101 34.6863 101 38V62C101 65.3137 98.3137 68 95 68H75V32Z" fill="#64748b" stroke="#1e293b" stroke-width="2"/>
  <rect x="85" y="40" width="12" height="20" rx="3" fill="#0ea5e9" fill-opacity="0.6" stroke="#38bdf8" stroke-width="1"/>
  <circle cx="101" cy="40" r="3" fill="#fff" opacity="0.8"/>
  <circle cx="101" cy="60" r="3" fill="#fff" opacity="0.8"/>
  <circle cx="65" cy="50" r="8" fill="#1e293b" stroke="#f97316" stroke-width="2"/>
  <rect x="63" y="44" width="4" height="12" rx="1" fill="#f97316"/>
</svg>